# xmcd
#
# Track frame offsets:
#	150
#	20967
#	47479
#	62104
#	85432
#	111269
#	132879
#	153954
#	173454
#	189896
#	216078
#	244788
#	262236
#
# Disc length: 3950 seconds
#
# Revision: 1
# Processed by: cddbd v1.5.2PL0 Copyright (c) Steve Scherf et al.
# Submitted via: audiograbber 1.83.01
#
DISCID=b30f6c0d
DTITLE=Rollovermusic - Rollover
DYEAR=2009
DGENRE=Blues
TTITLE0=Rollover
TTITLE1=Honey Darling
TTITLE2=Pretty Baby
TTITLE3=One Man
TTITLE4=Beautiful Lie
TTITLE5=What Can We Do About It
TTITLE6=Miss Wood
TTITLE7=Oh My Child
TTITLE8=Poor Old Hand
TTITLE9=This Song Is For You
TTITLE10=Find The Answer Tonight
TTITLE11=Jesus Cocaine
TTITLE12=Bonus Track
EXTD=This Album was recorded in our living rooms in Berlin, Vienna, Dortmund an
EXTD=d at the Last Waterhole "Homebase" in 2009. "Beautiful Lie" was recorded a
EXTD=t the Blueroom in august 2004.
EXTT0=
EXTT1=
EXTT2=
EXTT3=
EXTT4=
EXTT5=
EXTT6=
EXTT7=
EXTT8=
EXTT9=
EXTT10=
EXTT11=
EXTT12=
PLAYORDER=
